<svg xmlns="http://www.w3.org/2000/svg" version="1.1" xmlns:xlink="http://www.w3.org/1999/xlink" xmlns:svgjs="http://svgjs.dev/svgjs" width="1000" height="999" viewBox="0 0 1000 999"><g transform="matrix(1,0,0,1,-0.215743440233382,-0.21552769679306039)"><svg viewBox="0 0 343 343" data-background-color="#ffffff" preserveAspectRatio="xMidYMid meet" height="999" width="1000" xmlns="http://www.w3.org/2000/svg" xmlns:xlink="http://www.w3.org/1999/xlink"><g id="tight-bounds" transform="matrix(1,0,0,1,0.0740000000000407,0.07400000000001228)"><svg viewBox="0 0 342.85155851775386 342.85155851775386" height="342.85155851775386" width="342.85155851775386"><g><svg></svg></g><g><svg viewBox="0 0 342.85155851775386 342.85155851775386" height="342.85155851775386" width="342.85155851775386"><g><path d="M0 171.426c0-94.676 76.75-171.426 171.426-171.426 94.676 0 171.426 76.75 171.426 171.426 0 94.676-76.75 171.426-171.426 171.426-94.676 0-171.426-76.75-171.426-171.426zM171.426 340.835c93.562 0 169.409-75.847 169.409-169.409 0-93.562-75.847-169.409-169.409-169.409-93.562 0-169.409 75.847-169.409 169.409 0 93.562 75.847 169.409 169.409 169.409z" data-fill-palette-color="tertiary" fill="#010c80" stroke="transparent"></path><ellipse rx="164.56874808852186" ry="164.56874808852186" cx="171.42577925887693" cy="171.42577925887693" fill="#010c80" stroke="transparent" stroke-width="0" fill-opacity="1" data-fill-palette-color="tertiary"></ellipse></g><g transform="matrix(1,0,0,1,64.84655864529837,107.99360502377004)"><svg viewBox="0 0 213.1584412271571 126.86434847021377" height="126.86434847021377" width="213.1584412271571"><g><svg viewBox="0 0 213.1584412271571 126.86434847021377" height="126.86434847021377" width="213.1584412271571"><g transform="matrix(1,0,0,1,0,92.74779588818879)"><svg viewBox="0 0 213.1584412271571 34.11655258202497" height="34.11655258202497" width="213.1584412271571"><g id="textblocktransform"><svg viewBox="0 0 213.1584412271571 34.11655258202497" height="34.11655258202497" width="213.1584412271571" id="textblock"><g><svg viewBox="0 0 213.1584412271571 22.36084860527373" height="22.36084860527373" width="213.1584412271571"><g transform="matrix(1,0,0,1,0,0)"><svg width="213.1584412271571" viewBox="2.9 -35.05 379.38 39.8" height="22.36084860527373" data-palette-color="#ffffff"><path d="M14.7 1.2Q11.15 1.2 9.03 1.03 6.9 0.85 5.65 0.4L5.65 0.4Q4.35-0.15 3.75-1.1 3.15-2.05 3.15-3.65L3.15-3.65 3.15-4.9Q3.2-5.4 3.2-6.4L3.2-6.4Q3.25-6.9 3.25-7.9L3.25-7.9Q3.3-8.4 3.3-8.95L3.3-8.95Q3.3-10.85 3.2-14.65L3.2-14.65 3.15-17.65Q2.9-21.2 2.9-26.25L2.9-26.25 2.9-27.95 2.9-29.5Q2.9-31.25 3.05-32.05L3.05-32.05Q3.15-32.3 3.18-32.5 3.2-32.7 3.2-32.8L3.2-32.8Q3.25-33.7 3.95-34.15L3.95-34.15Q4.35-34.3 5.05-34.3L5.05-34.3Q5.5-34.3 6.03-34.35 6.55-34.4 7.15-34.4L7.15-34.4Q7.95-34.4 9.65-34.5L9.65-34.5Q10.1-34.55 10.73-34.6 11.35-34.65 12.15-34.65L12.15-34.65Q13.75-34.75 14.4-34.75L14.4-34.75Q18.5-34.75 24-33.95L24-33.95Q27.85-33.5 30-33L30-33Q33.65-32.1 35.55-30.65L35.55-30.65Q38-28.55 38-25.3L38-25.3Q38-21.1 34.55-18.95L34.55-18.95Q34.3-18.8 34.1-18.73 33.9-18.65 33.7-18.55L33.7-18.55Q32.8-18.3 32.15-17.9L32.15-17.9Q32.05-17.85 31.9-17.73 31.75-17.6 31.65-17.4L31.65-17.4Q31.65-17.4 31.68-17.38 31.7-17.35 31.7-17.3L31.7-17.3Q31.7-17.3 31.8-17.2L31.8-17.2Q35.25-15.8 37.4-13.75L37.4-13.75Q39-11.95 39-10L39-10Q39-7.25 35.65-4.45L35.65-4.45Q32.35-1.85 27.5-0.5L27.5-0.5Q23.9 0.5 20.4 0.9L20.4 0.9Q17.75 1.2 14.7 1.2L14.7 1.2ZM20.65-22.15Q20.9-22.15 21.2-22.3L21.2-22.3Q22.5-22.75 23.65-23.4L23.65-23.4Q24.35-23.7 25.03-24.03 25.7-24.35 25.95-24.45L25.95-24.45 26.4-24.65 26.8-24.75Q27-24.75 27-25L27-25Q27-25.85 25.15-26.15L25.15-26.15Q24.05-26.4 22.4-26.4L22.4-26.4Q20.9-26.4 20.5-25.25L20.5-25.25Q20.25-24.65 20.25-23.75 20.25-22.85 20.25-22.65L20.25-22.65 20.25-22.4Q20.25-22.15 20.65-22.15L20.65-22.15ZM19.8-7.7L19.9-7.7Q19.9-7.7 19.93-7.7 19.95-7.7 19.95-7.75L19.95-7.75Q23.45-9.45 27.9-11.45L27.9-11.45Q28.1-11.65 28.15-11.65L28.15-11.65 28.4-11.8Q26.3-12.45 24.25-12.65L24.25-12.65Q21.65-12.75 19.95-12.75L19.95-12.75Q19.4-12.75 19.4-12.05L19.4-12.05 19.4-8.05Q19.4-7.7 19.8-7.7L19.8-7.7ZM54.25 1.15Q49.5 1.15 47.05-1.05L47.05-1.05Q45-2.8 44.25-6.65L44.25-6.65Q43.75-9.2 43.75-14.3L43.75-14.3Q43.75-18 44.15-22.4L44.15-22.4Q44.15-23.1 44.25-24.4L44.25-24.4Q44.3-25.45 44.35-27.38 44.4-29.3 44.4-30.75L44.4-30.75Q44.4-31.5 44.3-31.8L44.3-31.8Q44.2-32.5 44.2-32.9L44.2-32.9Q44.2-33.7 45.9-33.7L45.9-33.7 48.9-33.7Q52.1-33.8 55.05-33.5L55.05-33.5Q57.1-33.3 58.2-33.05L58.2-33.05Q59.55-32.7 60-32.05L60-32.05Q60.4-31.3 60.4-29.45L60.4-29.45Q60.4-27.2 60.35-25.33 60.3-23.45 60.25-22L60.25-22Q60.2-21.65 60.2-20.9L60.2-20.9Q60.2-19.9 60.1-17.5L60.1-17.5Q60-13.1 60-10.15L60-10.15Q60-8.3 60.15-7.45L60.15-7.45Q60.3-6.65 60.95-6.65L60.95-6.65Q62.3-6.65 63.9-7.3L63.9-7.3Q64.9-7.8 65.3-8.05L65.3-8.05 65.3-28.15Q65.15-29.3 65.15-30.4L65.15-30.4Q65.05-30.7 65.05-31.25L65.05-31.25 65.05-31.7Q65.05-32.6 65.4-32.95L65.4-32.95Q65.75-33.25 67.05-33.25L67.05-33.25Q68.5-33.25 70.8-33.4L70.8-33.4Q71.6-33.4 73-33.5L73-33.5Q74-33.5 74.45-33.65L74.45-33.65Q74.75-33.65 75.15-33.55L75.15-33.55Q75.75-33.55 76.15-33.5L76.15-33.5 77.65-33.45Q78.75-33.4 80.4-33.05L80.4-33.05 81.8-32.65Q82.25-32.5 82.37-32.3 82.5-32.1 82.5-31.8L82.5-31.8Q82.5-24.4 82.2-16.95L82.2-16.95Q81.9-7.15 81.9-2.15L81.9-2.15Q81.9-0.15 80-0.15L80-0.15 77.45-0.15Q76.45-0.05 73.8 0.05L73.8 0.05Q72.3 0.15 71.45 0.15L71.45 0.15 69.15 0.25Q67.8 0.25 67.1-0.2 66.4-0.65 66.15-1.75L66.15-1.75Q63.45-0.4 60.45 0.4L60.45 0.4Q57.45 1.15 54.25 1.15L54.25 1.15ZM94.55 0.15Q94.05 0.15 93.7 0.05L93.7 0.05 92.7 0.05 91.9 0.05 91.45 0.05 89.2-0.5 89.05-0.9Q89-0.9 89-1.45L89-1.45Q88.9-2.95 88.9-4.9L88.9-4.9Q88.9-6.3 88.8-7.15L88.8-7.15Q88.8-8.55 88.75-9.25L88.75-9.25 88.75-11Q88.5-13.3 88.45-16.05 88.4-18.8 88.4-21.4L88.4-21.4 88.5-26.5Q88.55-27.35 88.55-29.1L88.55-29.1Q88.55-30.85 88.5-31.7L88.5-31.7Q88.34-32.85 89.15-33.4L89.15-33.4Q89.65-33.65 90.9-33.65L90.9-33.65Q92.75-33.65 95.65-33.75L95.65-33.75 96.75-33.85Q99.75-34.05 100.5-34.05L100.5-34.05Q101.2-34.05 101.5-34L101.5-34Q102.2-33.95 102.45-33.8 102.7-33.65 102.92-33.3 103.15-32.95 103.25-32.75L103.25-32.75Q103.84-31.95 104.45-31.05L104.45-31.05Q105.34-29.7 105.9-28.95L105.9-28.95 109.2-23.9 110.8-21.5Q110.8-22.8 110.9-23.55L110.9-23.55 110.9-28.2 111.05-31.75Q111.09-32.15 111.15-32.3 111.2-32.45 111.3-32.52 111.4-32.6 111.45-32.65L111.45-32.65Q112.05-33.15 112.65-33.4L112.65-33.4Q113.15-33.5 113.45-33.5L113.45-33.5 116.3-33.5 116.9-33.5Q117.3-33.45 118.3-33.45L118.3-33.45Q119.4-33.45 120.05-33.4L120.05-33.4 121.75-33.4 123.15-33.4 123.75-33.4Q125.05-33.4 125.5-33L125.5-33Q126.05-32.6 126.05-31.25L126.05-31.25 126-30.75 125.95-29.95Q125.9-29.65 125.9-29.15L125.9-29.15 125.9-28.55 125.9-28.15 126-27.65 126-26.05Q125.95-25.2 125.95-23.15L125.95-23.15 125.95-19.45Q125.9-18.15 125.9-15.8L125.9-15.8 125.9-12.9 125.9-11.2 125.9-3.3 125.7-1.4Q125.5-0.25 124.9 0L124.9 0 124.05 0.05 123.2 0 120.95 0 118 0 114.95 0 114.2 0Q113.2 0.1 112.25-0.25L112.25-0.25Q111.8-0.45 111.25-0.9L111.25-0.9 106.15-8.05Q106.15-8.1 105.05-9.9L105.05-9.9Q104.65-10.5 104.3-10.95L104.3-10.95Q104.2-11.15 104.07-11.28 103.95-11.4 103.9-11.4L103.9-11.4Q103.45-11.4 103.45-11L103.45-11 103.45-9.9Q103.4-9.4 103.4-8.25L103.4-8.25 103.4-6.3 103.4-4.4Q103.3-3.8 103.3-2.9L103.3-2.9 103.3-1.9 103.3-1.15 103.34-0.9Q103.34-0.5 102.95-0.4L102.95-0.4Q102.7-0.2 102.15-0.3L102.15-0.3Q100.45-0.2 99.45-0.1L99.45-0.1Q98.84-0.05 97.34 0.05 95.84 0.15 94.55 0.15L94.55 0.15ZM158.29 0.9L157.59 0.4Q157.29 0.05 157.29 0L157.29 0 152.04-6.05Q151.89-6.2 151.54-6.65 151.19-7.1 150.89-7.4L150.89-7.4 150.14-8.15Q149.79-8.4 149.69-8.4L149.69-8.4Q149.49-8.4 149.39-8.28 149.29-8.15 149.29-8L149.29-8 149.29-7.3 149.29-6.2Q149.29-5.4 149.19-4.95L149.19-4.95 149.19-3.65Q149.14-3.2 149.14-2.55L149.14-2.55 149.14-1.9 149.14-1.15 149.14-0.95Q149.14-0.45 148.79-0.4L148.79-0.4Q148.54-0.2 148.04-0.3L148.04-0.3Q145.44-0.2 144.29-0.2L144.29-0.2 137.89-0.25 137.04-0.25 136.04-0.25Q135.39-0.25 135.14-0.3L135.14-0.3 134.79-0.3 132.54-0.5 132.39-0.9Q132.34-0.9 132.34-1.45L132.34-1.45Q132.34-2.3 132.29-2.9L132.29-2.9 132.29-4.9Q132.19-5.65 132.19-7.15L132.19-7.15 132.09-11Q132.04-12.25 131.84-14.75L131.84-14.75 131.79-16Q131.69-17.7 131.69-18.5L131.69-18.5 131.69-19Q131.79-19.3 131.79-19.9L131.79-19.9Q131.84-20.55 131.84-21.4L131.84-21.4 131.79-22.4Q131.79-22.75 131.74-22.98 131.69-23.2 131.69-23.3L131.69-23.3Q131.69-23.4 131.74-23.9 131.79-24.4 131.79-24.9L131.79-24.9Q131.84-25.5 131.84-26.4L131.84-26.4 131.84-27.15 131.84-28.15Q131.79-29 131.79-30.65L131.79-30.65Q131.69-31 131.69-31.65L131.69-31.65 131.69-32.15Q131.54-33.3 132.89-33.5L132.89-33.5Q133.29-33.65 134.04-33.65L134.04-33.65 135.14-33.65 140.69-33.65 144.79-33.65 147.44-33.65 149.04-33.65Q149.74-33.65 149.89-32.8L149.89-32.8Q149.94-32.65 149.94-32.15L149.94-32.15 149.94-31.4Q149.94-30.15 149.84-27.65L149.84-27.65 149.79-26.3Q149.69-25 149.69-24.5L149.69-24.5Q150.29-24.5 150.79-24.8L150.79-24.8Q151.14-25.15 151.14-25.15L151.14-25.15Q151.24-25.2 151.37-25.33 151.49-25.45 151.59-25.55L151.59-25.55Q151.79-25.65 152.54-26.4L152.54-26.4Q153.79-27.65 156.64-30.25L156.64-30.25Q159.39-32.85 160.94-34.05L160.94-34.05Q161.89-34.7 162.14-34.75L162.14-34.75Q162.24-34.75 162.49-34.5 162.74-34.25 162.84-34.15L162.84-34.15Q162.84-34.15 163.29-33.7L163.29-33.7Q163.39-33.45 163.54-33.4L163.54-33.4 163.84-33.05Q164.29-32.7 164.44-32.45L164.44-32.45 165.04-31.9Q165.19-31.75 165.29-31.63 165.39-31.5 165.44-31.45L165.44-31.45Q165.74-30.95 167.04-29.3L167.04-29.3Q168.04-28.15 168.54-27.05L168.54-27.05 168.54-26.95Q168.54-26.25 167.14-24.75L167.14-24.75 166.04-23.65Q165.44-23.1 165.19-22.8L165.19-22.8Q165.14-22.8 165.04-22.7 164.94-22.6 164.79-22.45L164.79-22.45 162.79-20.9Q162.79-20.9 161.79-19.9L161.79-19.9 160.89-19.2Q160.79-19.15 160.52-18.93 160.24-18.7 160.04-18.65L160.04-18.65Q159.89-18.55 159.69-18.43 159.49-18.3 159.44-18.2L159.44-18.2Q159.34-18.15 159.34-17.75L159.34-17.75Q159.34-16.95 160.14-16.25L160.14-16.25Q160.49-15.85 160.84-15.65L160.84-15.65 161.54-15.05Q162.59-14 162.59-14L162.59-14Q163.59-13.15 166.19-10.75L166.19-10.75Q168.19-8.95 169.34-7.5L169.34-7.5Q169.84-6.75 169.84-6.4L169.84-6.4Q169.84-6.1 169.77-5.9 169.69-5.7 169.44-5.45L169.44-5.45Q168.44-4.6 167.59-4.2L167.59-4.2Q166.74-3.75 165.94-3.08 165.14-2.4 164.39-1.75L164.39-1.75Q163.74-1.15 162.89-0.65L162.89-0.65 161.89-0.15Q161.89-0.15 161.44 0.15L161.44 0.15Q160.99 0.45 160.79 0.65L160.79 0.65Q160.04 1.1 159.24 1.1L159.24 1.1Q158.79 1.1 158.29 0.9L158.29 0.9ZM186.29 1.2Q182.74 1.2 180.62 1.03 178.49 0.85 177.24 0.4L177.24 0.4Q175.94-0.15 175.34-1.1 174.74-2.05 174.74-3.65L174.74-3.65 174.74-4.9Q174.79-5.4 174.79-6.4L174.79-6.4Q174.84-6.9 174.84-7.9L174.84-7.9Q174.89-8.4 174.89-8.95L174.89-8.95Q174.89-10.85 174.79-14.65L174.79-14.65 174.74-17.65Q174.49-21.2 174.49-26.25L174.49-26.25 174.49-27.95 174.49-29.5Q174.49-31.25 174.64-32.05L174.64-32.05Q174.74-32.3 174.77-32.5 174.79-32.7 174.79-32.8L174.79-32.8Q174.84-33.7 175.54-34.15L175.54-34.15Q175.94-34.3 176.64-34.3L176.64-34.3Q177.09-34.3 177.62-34.35 178.14-34.4 178.74-34.4L178.74-34.4Q179.54-34.4 181.24-34.5L181.24-34.5Q181.69-34.55 182.32-34.6 182.94-34.65 183.74-34.65L183.74-34.65Q185.34-34.75 185.99-34.75L185.99-34.75Q190.09-34.75 195.59-33.95L195.59-33.95Q199.44-33.5 201.59-33L201.59-33Q205.24-32.1 207.14-30.65L207.14-30.65Q209.59-28.55 209.59-25.3L209.59-25.3Q209.59-21.1 206.14-18.95L206.14-18.95Q205.89-18.8 205.69-18.73 205.49-18.65 205.29-18.55L205.29-18.55Q204.39-18.3 203.74-17.9L203.74-17.9Q203.64-17.85 203.49-17.73 203.34-17.6 203.24-17.4L203.24-17.4Q203.24-17.4 203.27-17.38 203.29-17.35 203.29-17.3L203.29-17.3Q203.29-17.3 203.39-17.2L203.39-17.2Q206.84-15.8 208.99-13.75L208.99-13.75Q210.59-11.95 210.59-10L210.59-10Q210.59-7.25 207.24-4.45L207.24-4.45Q203.94-1.85 199.09-0.5L199.09-0.5Q195.49 0.5 191.99 0.9L191.99 0.9Q189.34 1.2 186.29 1.2L186.29 1.2ZM192.24-22.15Q192.49-22.15 192.79-22.3L192.79-22.3Q194.09-22.75 195.24-23.4L195.24-23.4Q195.94-23.7 196.62-24.03 197.29-24.35 197.54-24.45L197.54-24.45 197.99-24.65 198.39-24.75Q198.59-24.75 198.59-25L198.59-25Q198.59-25.85 196.74-26.15L196.74-26.15Q195.64-26.4 193.99-26.4L193.99-26.4Q192.49-26.4 192.09-25.25L192.09-25.25Q191.84-24.65 191.84-23.75 191.84-22.85 191.84-22.65L191.84-22.65 191.84-22.4Q191.84-22.15 192.24-22.15L192.24-22.15ZM191.39-7.7L191.49-7.7Q191.49-7.7 191.52-7.7 191.54-7.7 191.54-7.75L191.54-7.75Q195.04-9.45 199.49-11.45L199.49-11.45Q199.69-11.65 199.74-11.65L199.74-11.65 199.99-11.8Q197.89-12.45 195.84-12.65L195.84-12.65Q193.24-12.75 191.54-12.75L191.54-12.75Q190.99-12.75 190.99-12.05L190.99-12.05 190.99-8.05Q190.99-7.7 191.39-7.7L191.39-7.7ZM225.84 1.15Q221.09 1.15 218.64-1.05L218.64-1.05Q216.59-2.8 215.84-6.65L215.84-6.65Q215.34-9.2 215.34-14.3L215.34-14.3Q215.34-18 215.74-22.4L215.74-22.4Q215.74-23.1 215.84-24.4L215.84-24.4Q215.89-25.45 215.94-27.38 215.99-29.3 215.99-30.75L215.99-30.75Q215.99-31.5 215.89-31.8L215.89-31.8Q215.79-32.5 215.79-32.9L215.79-32.9Q215.79-33.7 217.49-33.7L217.49-33.7 220.49-33.7Q223.69-33.8 226.64-33.5L226.64-33.5Q228.69-33.3 229.79-33.05L229.79-33.05Q231.14-32.7 231.59-32.05L231.59-32.05Q231.99-31.3 231.99-29.45L231.99-29.45Q231.99-27.2 231.94-25.33 231.89-23.45 231.84-22L231.84-22Q231.79-21.65 231.79-20.9L231.79-20.9Q231.79-19.9 231.69-17.5L231.69-17.5Q231.59-13.1 231.59-10.15L231.59-10.15Q231.59-8.3 231.74-7.45L231.74-7.45Q231.89-6.65 232.54-6.65L232.54-6.65Q233.89-6.65 235.49-7.3L235.49-7.3Q236.49-7.8 236.89-8.05L236.89-8.05 236.89-28.15Q236.74-29.3 236.74-30.4L236.74-30.4Q236.64-30.7 236.64-31.25L236.64-31.25 236.64-31.7Q236.64-32.6 236.99-32.95L236.99-32.95Q237.34-33.25 238.64-33.25L238.64-33.25Q240.09-33.25 242.39-33.4L242.39-33.4Q243.19-33.4 244.59-33.5L244.59-33.5Q245.59-33.5 246.04-33.65L246.04-33.65Q246.34-33.65 246.74-33.55L246.74-33.55Q247.34-33.55 247.74-33.5L247.74-33.5 249.24-33.45Q250.34-33.4 251.99-33.05L251.99-33.05 253.39-32.65Q253.84-32.5 253.96-32.3 254.09-32.1 254.09-31.8L254.09-31.8Q254.09-24.4 253.79-16.95L253.79-16.95Q253.49-7.15 253.49-2.15L253.49-2.15Q253.49-0.15 251.59-0.15L251.59-0.15 249.04-0.15Q248.04-0.05 245.39 0.05L245.39 0.05Q243.89 0.15 243.04 0.15L243.04 0.15 240.74 0.25Q239.39 0.25 238.69-0.2 237.99-0.65 237.74-1.75L237.74-1.75Q235.04-0.4 232.04 0.4L232.04 0.4Q229.04 1.15 225.84 1.15L225.84 1.15ZM275.59 0.05L268.99 0 261.34-0.05Q260.49-0.05 260.24-1.15L260.24-1.15Q259.99-1.85 259.99-3.15L259.99-3.15Q259.99-7.5 259.89-10.9L259.89-10.9Q259.74-15.8 259.74-21.25L259.74-21.25 259.74-32.25Q259.74-32.7 260.16-33.13 260.59-33.55 261.04-33.55L261.04-33.55 266.84-33.5Q268.49-33.45 270.99-33.45L270.99-33.45Q274.74-33.45 276.84-33.5L276.84-33.5 278.69-33.55Q281.79-33.65 283.59-33.65L283.59-33.65Q286.69-33.65 289.59-32.45L289.59-32.45Q292.99-31.15 295.04-28L295.04-28Q297.49-24.2 297.49-18.65L297.49-18.65Q297.49-13.4 296.31-9.9 295.14-6.4 292.59-4.15L292.59-4.15Q290.04-1.95 285.91-0.95 281.79 0.05 275.59 0.05L275.59 0.05ZM275.99-6.65Q276.19-6.6 276.54-6.6L276.54-6.6Q276.94-6.6 277.64-6.7L277.64-6.7Q277.89-6.75 278.01-6.83 278.14-6.9 278.24-6.95L278.24-6.95Q278.84-7.65 279.39-9.9L279.39-9.9Q279.74-11.3 280.24-14.7L280.24-14.7Q280.49-17.6 280.49-19.7L280.49-19.7 280.49-20.65Q280.49-21.95 280.24-24.55L280.24-24.55Q279.89-27.15 279.24-28.2L279.24-28.2Q278.69-28.9 278.24-28.9L278.24-28.9Q277.79-28.9 277.44-28.8 277.09-28.7 276.99-28.65L276.99-28.65Q276.89-28.6 276.54-28.4L276.54-28.4 276.49-22.4Q276.49-21.6 276.39-20L276.39-20 276.34-18.8Q276.24-16.3 276.24-15.2L276.24-15.2 275.99-6.65ZM318.48 0.05L311.88 0 304.23-0.05Q303.38-0.05 303.13-1.15L303.13-1.15Q302.88-1.85 302.88-3.15L302.88-3.15Q302.88-7.5 302.78-10.9L302.78-10.9Q302.63-15.8 302.63-21.25L302.63-21.25 302.63-32.25Q302.63-32.7 303.06-33.13 303.48-33.55 303.93-33.55L303.93-33.55 309.73-33.5Q311.38-33.45 313.88-33.45L313.88-33.45Q317.63-33.45 319.73-33.5L319.73-33.5 321.58-33.55Q324.68-33.65 326.48-33.65L326.48-33.65Q329.58-33.65 332.48-32.45L332.48-32.45Q335.88-31.15 337.93-28L337.93-28Q340.38-24.2 340.38-18.65L340.38-18.65Q340.38-13.4 339.21-9.9 338.03-6.4 335.48-4.15L335.48-4.15Q332.93-1.95 328.81-0.95 324.68 0.05 318.48 0.05L318.48 0.05ZM318.88-6.65Q319.08-6.6 319.43-6.6L319.43-6.6Q319.83-6.6 320.53-6.7L320.53-6.7Q320.78-6.75 320.91-6.83 321.03-6.9 321.13-6.95L321.13-6.95Q321.73-7.65 322.28-9.9L322.28-9.9Q322.63-11.3 323.13-14.7L323.13-14.7Q323.38-17.6 323.38-19.7L323.38-19.7 323.38-20.65Q323.38-21.95 323.13-24.55L323.13-24.55Q322.78-27.15 322.13-28.2L322.13-28.2Q321.58-28.9 321.13-28.9L321.13-28.9Q320.68-28.9 320.33-28.8 319.98-28.7 319.88-28.65L319.88-28.65Q319.78-28.6 319.43-28.4L319.43-28.4 319.38-22.4Q319.38-21.6 319.28-20L319.28-20 319.23-18.8Q319.13-16.3 319.13-15.2L319.13-15.2 318.88-6.65ZM365.53 4.75L365.53 4.45Q365.53 4.45 365.46 4.45 365.38 4.45 365.33 4.5L365.33 4.5 365.18 4.55Q365.03 4.55 365.03 4.45L365.03 4.45Q364.83 4.35 364.78 4.15L364.78 4.15Q363.03 3.85 362.53 3.65L362.53 3.65 360.78 3.15 360.53 3.15Q360.28 3.15 360.13 3.05L360.13 3.05Q359.68 3.05 359.38 2.95L359.38 2.95Q358.98 2.9 358.08 2.6 357.18 2.3 356.78 2.15L356.78 2.15Q355.98 1.9 354.48 1.3L354.48 1.3Q353.78 1 353.43 0.9L353.43 0.9 352.28 0.2Q351.88-0.1 351.88-0.4L351.88-0.4Q351.88-1.35 352.33-2.4L352.33-2.4Q352.48-2.75 352.76-3.25 353.03-3.75 353.28-4.4L353.28-4.4Q353.38-4.7 353.83-5.3L353.83-5.3Q355.03-7.3 355.13-7.5L355.13-7.5Q355.33-8.05 355.33-8.5L355.33-8.5Q355.33-9.25 354.53-10.05L354.53-10.05Q353.78-10.8 353.78-11.5L353.78-11.5Q353.53-11.5 353.53-11.45L353.53-11.45 353.43-11.45 353.38-11.45Q353.28-11.55 353.28-11.65L353.28-11.65Q351.68-13.65 350.03-16.5L350.03-16.5Q347.93-19.8 346.63-22.5L346.63-22.5Q346.23-23.1 345.68-24.65L345.68-24.65Q345.03-26 344.58-27.4L344.58-27.4Q344.03-28.95 344.03-29.4L344.03-29.4Q344.03-29.9 345.13-30.7L345.13-30.7Q345.58-31 346.18-31.3 346.78-31.6 347.08-31.75L347.08-31.75Q347.33-31.8 349.18-32.3L349.18-32.3 349.88-32.55Q350.08-32.7 350.33-32.7L350.33-32.7Q350.63-32.7 351.28-32.9L351.28-32.9Q352.73-33.2 352.98-33.3L352.98-33.3 354.78-33.7Q356.28-34.2 356.53-34.25L356.53-34.25 356.63-34.3 356.78-34.3 356.88-34.3Q357.93-34.3 358.28-33.8L358.28-33.8Q358.58-33.5 359.28-32.4L359.28-32.4Q359.38-32.1 359.66-31.7 359.93-31.3 360.03-31.2L360.03-31.2 360.43-30.65 360.78-30.25Q360.98-30 361.18-29.65 361.38-29.3 361.63-28.9L361.63-28.9Q362.93-26.6 363.63-25.65L363.63-25.65Q364.08-25 364.38-25L364.38-25Q364.53-25 364.88-25.55L364.88-25.55Q365.33-26.25 366.53-28.75L366.53-28.75Q367.18-30.35 368.08-32.4L368.08-32.4Q368.53-33.3 368.58-33.5L368.58-33.5Q368.78-34.4 369.03-34.65L369.03-34.65Q369.28-35.05 369.93-35.05L369.93-35.05Q371.53-35.05 374.13-34.4L374.13-34.4Q376.68-33.65 379.03-32.45L379.03-32.45Q381.43-31.15 382.28-30.05L382.28-30.05Q382.28-28.7 381.63-27.55L381.63-27.55 377.03-17.4 372.53-7.2 372.33-7.15Q372.28-7.15 372.18-7.05L372.18-7.05Q368.88-0.6 366.13 4.55L366.13 4.55Q366.03 4.75 365.53 4.75L365.53 4.75Z" opacity="1" transform="matrix(1,0,0,1,0,0)" fill="#ffffff" class="wordmark-text-0" data-fill-palette-color="quaternary" id="text-0"></path></svg></g></svg></g><g transform="matrix(1,0,0,1,0,27.639708300612334)"><svg viewBox="0 0 162.00041533263942 6.47684428141264" height="6.47684428141264" width="162.00041533263942"><g transform="matrix(1,0,0,1,0,0)"><svg width="162.00041533263942" viewBox="0.8 -36.35 919.13 36.75" height="6.47684428141264" data-palette-color="#ffffff"><path d="M27.05 0L24.95-6.2 11.85-6.2 9.75 0 0.8 0 13.5-35.1 23.4-35.1 36.1 0 27.05 0ZM14.1-12.8L22.75-12.8 18.4-25.65 14.1-12.8ZM38.05-35.1L65.2-35.1 65.2-28.25 55.9-28.25 55.9 0 47.35 0 47.35-28.25 38.05-28.25 38.05-35.1ZM67.6-35.1L94.75-35.1 94.75-28.25 85.45-28.25 85.45 0 76.9 0 76.9-28.25 67.6-28.25 67.6-35.1ZM120.54-28.25L107.59-28.25 107.59-21.15 119.04-21.15 119.04-14.55 107.59-14.55 107.59-6.85 120.54-6.85 120.54 0 99.04 0 99.04-35.1 120.54-35.1 120.54-28.25ZM157.49-35.1L157.49 0 148.94 0 134.64-21.65 134.64 0 126.09 0 126.09-35.1 134.64-35.1 148.94-13.35 148.94-35.1 157.49-35.1ZM176.84-35.1Q182.39-35.1 186.54-32.9 190.69-30.7 192.96-26.73 195.24-22.75 195.24-17.55L195.24-17.55Q195.24-12.4 192.96-8.4 190.69-4.4 186.51-2.2 182.34 0 176.84 0L176.84 0 163.69 0 163.69-35.1 176.84-35.1ZM176.29-7.4Q181.14-7.4 183.84-10.05 186.54-12.7 186.54-17.55L186.54-17.55Q186.54-22.4 183.84-25.1 181.14-27.8 176.29-27.8L176.29-27.8 172.24-27.8 172.24-7.4 176.29-7.4ZM223.99 0L221.88-6.2 208.78-6.2 206.69 0 197.74 0 210.44-35.1 220.34-35.1 233.03 0 223.99 0ZM211.03-12.8L219.69-12.8 215.34-25.65 211.03-12.8ZM268.28-35.1L268.28 0 259.73 0 245.43-21.65 245.43 0 236.88 0 236.88-35.1 245.43-35.1 259.73-13.35 259.73-35.1 268.28-35.1ZM273.03-17.6Q273.03-22.8 275.28-26.88 277.53-30.95 281.56-33.23 285.58-35.5 290.68-35.5L290.68-35.5Q296.93-35.5 301.38-32.2 305.83-28.9 307.33-23.2L307.33-23.2 297.93-23.2Q296.88-25.4 294.95-26.55 293.03-27.7 290.58-27.7L290.58-27.7Q286.63-27.7 284.18-24.95 281.73-22.2 281.73-17.6L281.73-17.6Q281.73-13 284.18-10.25 286.63-7.5 290.58-7.5L290.58-7.5Q293.03-7.5 294.95-8.65 296.88-9.8 297.93-12L297.93-12 307.33-12Q305.83-6.3 301.38-3.03 296.93 0.25 290.68 0.25L290.68 0.25Q285.58 0.25 281.56-2.02 277.53-4.3 275.28-8.35 273.03-12.4 273.03-17.6L273.03-17.6ZM334.08-28.25L321.13-28.25 321.13-21.15 332.58-21.15 332.58-14.55 321.13-14.55 321.13-6.85 334.08-6.85 334.08 0 312.58 0 312.58-35.1 334.08-35.1 334.08-28.25ZM348.32-35.1L375.47-35.1 375.47-28.25 366.17-28.25 366.17 0 357.62 0 357.62-28.25 348.32-28.25 348.32-35.1ZM407.32 0L397.67 0 390.37-13.25 388.32-13.25 388.32 0 379.77 0 379.77-35.1 394.12-35.1Q398.27-35.1 401.2-33.65 404.12-32.2 405.57-29.68 407.02-27.15 407.02-24.05L407.02-24.05Q407.02-20.55 405.05-17.8 403.07-15.05 399.22-13.9L399.22-13.9 407.32 0ZM388.32-28L388.32-19.3 393.62-19.3Q395.97-19.3 397.15-20.45 398.32-21.6 398.32-23.7L398.32-23.7Q398.32-25.7 397.15-26.85 395.97-28 393.62-28L393.62-28 388.32-28ZM436.32 0L434.22-6.2 421.12-6.2 419.02 0 410.07 0 422.77-35.1 432.67-35.1 445.37 0 436.32 0ZM423.37-12.8L432.02-12.8 427.67-25.65 423.37-12.8ZM447.77-17.6Q447.77-22.8 450.02-26.88 452.27-30.95 456.29-33.23 460.32-35.5 465.42-35.5L465.42-35.5Q471.67-35.5 476.12-32.2 480.57-28.9 482.07-23.2L482.07-23.2 472.67-23.2Q471.62-25.4 469.69-26.55 467.77-27.7 465.32-27.7L465.32-27.7Q461.37-27.7 458.92-24.95 456.47-22.2 456.47-17.6L456.47-17.6Q456.47-13 458.92-10.25 461.37-7.5 465.32-7.5L465.32-7.5Q467.77-7.5 469.69-8.65 471.62-9.8 472.67-12L472.67-12 482.07-12Q480.57-6.3 476.12-3.03 471.67 0.25 465.42 0.25L465.42 0.25Q460.32 0.25 456.29-2.02 452.27-4.3 450.02-8.35 447.77-12.4 447.77-17.6L447.77-17.6ZM518.11 0L507.66 0 495.86-15.5 495.86 0 487.31 0 487.31-35.1 495.86-35.1 495.86-19.7 507.56-35.1 517.61-35.1 504.01-17.9 518.11 0ZM522.16-35.1L530.71-35.1 530.71 0 522.16 0 522.16-35.1ZM568.31-35.1L568.31 0 559.76 0 545.46-21.65 545.46 0 536.91 0 536.91-35.1 545.46-35.1 559.76-13.35 559.76-35.1 568.31-35.1ZM607.25-24L597.8-24Q596.86-25.75 595.08-26.68 593.3-27.6 590.9-27.6L590.9-27.6Q586.75-27.6 584.25-24.88 581.75-22.15 581.75-17.6L581.75-17.6Q581.75-12.75 584.38-10.03 587-7.3 591.61-7.3L591.61-7.3Q594.75-7.3 596.93-8.9 599.11-10.5 600.11-13.5L600.11-13.5 589.25-13.5 589.25-19.8 607.86-19.8 607.86-11.85Q606.9-8.65 604.63-5.9 602.36-3.15 598.86-1.45 595.36 0.25 590.95 0.25L590.95 0.25Q585.75 0.25 581.68-2.02 577.61-4.3 575.33-8.35 573.05-12.4 573.05-17.6L573.05-17.6Q573.05-22.8 575.33-26.88 577.61-30.95 581.65-33.23 585.7-35.5 590.9-35.5L590.9-35.5Q597.2-35.5 601.53-32.45 605.86-29.4 607.25-24L607.25-24ZM652.9-35.1L662.95-35.1 662.95 0 654.4 0 654.4-21.05 646.55 0 639.65 0 631.75-21.1 631.75 0 623.2 0 623.2-35.1 633.3-35.1 643.15-10.8 652.9-35.1ZM693.05 0L690.95-6.2 677.85-6.2 675.75 0 666.8 0 679.5-35.1 689.4-35.1 702.1 0 693.05 0ZM680.1-12.8L688.75-12.8 684.4-25.65 680.1-12.8ZM719.09-35.1Q724.64-35.1 728.79-32.9 732.94-30.7 735.22-26.73 737.49-22.75 737.49-17.55L737.49-17.55Q737.49-12.4 735.22-8.4 732.94-4.4 728.77-2.2 724.59 0 719.09 0L719.09 0 705.94 0 705.94-35.1 719.09-35.1ZM718.54-7.4Q723.39-7.4 726.09-10.05 728.79-12.7 728.79-17.55L728.79-17.55Q728.79-22.4 726.09-25.1 723.39-27.8 718.54-27.8L718.54-27.8 714.49-27.8 714.49-7.4 718.54-7.4ZM763.79-28.25L750.84-28.25 750.84-21.15 762.29-21.15 762.29-14.55 750.84-14.55 750.84-6.85 763.79-6.85 763.79 0 742.29 0 742.29-35.1 763.79-35.1 763.79-28.25ZM801.44-28.25L788.49-28.25 788.49-21.15 799.94-21.15 799.94-14.55 788.49-14.55 788.49-6.85 801.44-6.85 801.44 0 779.94 0 779.94-35.1 801.44-35.1 801.44-28.25ZM830.93 0L828.83-6.2 815.73-6.2 813.63 0 804.68 0 817.38-35.1 827.28-35.1 839.98 0 830.93 0ZM817.98-12.8L826.63-12.8 822.28-25.65 817.98-12.8ZM856.53 0.35Q852.68 0.35 849.63-0.9 846.58-2.15 844.76-4.6 842.93-7.05 842.83-10.5L842.83-10.5 851.93-10.5Q852.13-8.55 853.28-7.53 854.43-6.5 856.28-6.5L856.28-6.5Q858.18-6.5 859.28-7.38 860.38-8.25 860.38-9.8L860.38-9.8Q860.38-11.1 859.51-11.95 858.63-12.8 857.36-13.35 856.08-13.9 853.73-14.6L853.73-14.6Q850.33-15.65 848.18-16.7 846.03-17.75 844.48-19.8 842.93-21.85 842.93-25.15L842.93-25.15Q842.93-30.05 846.48-32.83 850.03-35.6 855.73-35.6L855.73-35.6Q861.53-35.6 865.08-32.83 868.63-30.05 868.88-25.1L868.88-25.1 859.63-25.1Q859.53-26.8 858.38-27.78 857.23-28.75 855.43-28.75L855.43-28.75Q853.88-28.75 852.93-27.93 851.98-27.1 851.98-25.55L851.98-25.55Q851.98-23.85 853.58-22.9 855.18-21.95 858.58-20.85L858.58-20.85Q861.98-19.7 864.11-18.65 866.23-17.6 867.78-15.6 869.33-13.6 869.33-10.45L869.33-10.45Q869.33-7.45 867.81-5 866.28-2.55 863.38-1.1 860.48 0.35 856.53 0.35L856.53 0.35ZM895.08-35.1L904.68-35.1 892.53-11.6 892.53 0 883.98 0 883.98-11.6 871.83-35.1 881.53-35.1 888.33-20.4 895.08-35.1ZM910.13-36.35L919.38-36.35 918.38-12.4 911.13-12.4 910.13-36.35ZM914.88 0.4Q912.63 0.4 911.2-0.93 909.78-2.25 909.78-4.2L909.78-4.2Q909.78-6.2 911.2-7.55 912.63-8.9 914.88-8.9L914.88-8.9Q917.08-8.9 918.5-7.55 919.93-6.2 919.93-4.2L919.93-4.2Q919.93-2.25 918.5-0.93 917.08 0.4 914.88 0.4L914.88 0.4Z" opacity="1" transform="matrix(1,0,0,1,0,0)" fill="#ffffff" class="slogan-text-1" data-fill-palette-color="quaternary" id="text-1"></path></svg></g></svg></g></svg></g></svg></g><g transform="matrix(1,0,0,1,65.48418236482277,0)"><svg viewBox="0 0 82.19007649751158 82.19007649751158" height="82.19007649751158" width="82.19007649751158"><g><svg></svg></g><g id="icon-0"><svg viewBox="0 0 82.19007649751158 82.19007649751158" height="82.19007649751158" width="82.19007649751158"><g><path d="M0 41.095c0-22.696 18.399-41.095 41.095-41.095 22.696 0 41.095 18.399 41.095 41.095 0 22.696-18.399 41.095-41.095 41.095-22.696 0-41.095-18.399-41.095-41.095zM41.095 80.174c21.582 0 39.079-17.496 39.079-39.079 0-21.582-17.496-39.079-39.079-39.078-21.582 0-39.079 17.496-39.078 39.078 0 21.582 17.496 39.079 39.078 39.079z" data-fill-palette-color="quaternary" fill="#ffffff" stroke="transparent"></path></g><g transform="matrix(1,0,0,1,19.6234820040999,18.119782689266724)"><svg viewBox="0 0 42.94311248931179 45.950511118978135" height="45.950511118978135" width="42.94311248931179"><g><svg xmlns:x="http://ns.adobe.com/Extensibility/1.0/" xmlns:i="http://ns.adobe.com/AdobeIllustrator/10.0/" xmlns:graph="http://ns.adobe.com/Graphs/1.0/" xmlns="http://www.w3.org/2000/svg" xmlns:xlink="http://www.w3.org/1999/xlink" version="1.1" x="0" y="0" viewBox="0 0 91.1187572400829 97.49999999999999" style="enable-background:new 0 0 100 100;" xml:space="preserve" height="45.950511118978135" width="42.94311248931179" class="icon-z$-0" data-fill-palette-color="quaternary" id="z$-0"><g i:extraneous="self" transform="matrix(1,0,0,1,0,0)" fill="#ffffff" data-fill-palette-color="quaternary"><g fill="#ffffff" data-fill-palette-color="quaternary"><circle cx="43" cy="32" r="21" fill="#ffffff" data-fill-palette-color="quaternary"></circle><path d="M83 2.5c-4.9-0.3-9 3.7-9 8.5v5.2c0.3 18.3-3.7 31.5-11.5 38-1 0.8-2 1.6-3.1 2.4-4.7 3.2-10.4 5-16.5 5-7.1 0-13.7-2.5-18.8-6.7C15.7 58.9 8.9 66.1 8.9 78.1v15.1c0 2.4 1.9 4.3 4.3 4.3h59.6c2.4 0 4.3-1.9 4.3-4.3V78.1c0-0.8 0-1.5-0.1-2.2-0.4-6.1 0.9-12.2 4.3-17.2 6.8-10.2 10.1-24.5 9.8-42.5v-4.6C91.1 6.9 87.6 2.8 83 2.5z" fill="#ffffff" data-fill-palette-color="quaternary"></path></g></g></svg></g></svg></g></svg></g></svg></g><g></g></svg></g></svg></g></svg></g><defs></defs></svg><rect width="342.85155851775386" height="342.85155851775386" fill="none" stroke="none" visibility="hidden"></rect></g></svg></g></svg>